<svg width="28" height="28" viewBox="0 0 28 28" fill="none" xmlns="http://www.w3.org/2000/svg">
<circle cx="14" cy="14" r="14" fill="#F7C3CC"/>
<path d="M9.00314 10.6376C9.07411 8.71803 10.3554 6.00001 13.4382 6C16.7958 5.99999 18.1168 8.34484 18.3206 10.1035C18.5308 11.9175 17.6424 14.0993 14.758 15.3844C14.0819 15.6856 13.5902 16.3242 13.5902 17.0644V18.2159C13.5902 18.5109 13.3511 18.75 13.0561 18.75C12.7612 18.75 12.5221 18.5118 12.5221 18.2168V16.7119C12.5221 15.8298 13.0941 15.0503 13.879 14.6477C15.3314 13.9027 17.3914 12.4429 17.0998 10.25C16.6905 7.17242 13.4382 7.17242 13.4382 7.17242C11.3034 7.17242 10.2542 9.12702 10.0949 10.555C10.0604 10.8636 9.81588 11.1293 9.50536 11.1293C9.22707 11.1293 8.99285 10.9157 9.00314 10.6376Z" fill="#EF5385" stroke="#EF5385" stroke-width="2" stroke-linejoin="round"/>
<circle cx="13.0377" cy="21.725" r="1.275" fill="#EF5385"/>
</svg>
